<svg width="180" height="38" viewBox="0 0 180 38" fill="none" xmlns="http://www.w3.org/2000/svg">
<g clip-path="url(#clip0_1017_12474)">
<path d="M40.0144 13.8642C39.6844 13.8642 39.3956 13.7611 39.1894 13.5342C38.9625 13.3073 38.8594 13.0392 38.8594 12.6886C38.8594 12.3379 38.9625 12.0904 39.1894 11.8635C39.4163 11.6366 39.6844 11.5129 40.0144 11.5129C40.3444 11.5129 40.6332 11.6366 40.8601 11.8635C41.0663 12.0904 41.1901 12.3792 41.1901 12.6886C41.1901 12.9979 41.0869 13.3073 40.8601 13.5342C40.6538 13.7611 40.365 13.8642 40.0144 13.8642Z" fill="white"/>
<path d="M32.6088 11.5129H30.4844V22.857H32.0519H32.6088H37.6621V20.9594H32.6088V11.5129Z" fill="white"/>
<path d="M41.043 14.7718H38.9805V22.857H41.043V14.7718Z" fill="white"/>
<path d="M50.264 17.0612C49.9546 16.4631 49.5008 15.9887 48.9439 15.6587C48.387 15.308 47.7683 15.143 47.067 15.143C46.3657 15.143 46.0564 15.2461 45.6026 15.473C45.3345 15.5968 45.1076 15.7618 44.9219 15.9474V11.5335H42.8594V22.8776H44.7982V19.1856C44.7982 19.1444 44.7982 19.1238 44.7982 19.0825C44.7982 19.0413 44.7982 19.0206 44.7982 18.9794C44.7982 18.6287 44.9013 18.2987 45.0457 18.01C45.2107 17.7006 45.4376 17.4531 45.7263 17.2881C46.0151 17.1231 46.3451 17.0199 46.7164 17.0199C47.0876 17.0199 47.4176 17.1024 47.727 17.2881C48.0158 17.4531 48.2427 17.7006 48.4077 18.01C48.5727 18.3194 48.6552 18.67 48.6552 19.0619C48.6552 19.4538 48.5727 19.825 48.4077 20.1344C48.2427 20.4438 48.0158 20.6913 47.727 20.8563C47.5001 21.0007 47.232 21.0832 46.9433 21.1038V23.0014C46.9845 23.0014 47.0258 23.0014 47.067 23.0014C47.7683 23.0014 48.387 22.8364 48.9439 22.4857C49.5008 22.1351 49.934 21.6607 50.264 21.0832C50.5734 20.4851 50.7384 19.825 50.7384 19.0825C50.7384 18.34 50.5734 17.6593 50.264 17.0612Z" fill="white"/>
<path d="M33.4751 27.6009L31.2888 24.1152H30.4844V30.076H31.6394V26.5284L33.0832 28.8591H33.867L35.3108 26.5077V30.076H36.4658V24.1152H35.6408L33.4751 27.6009Z" fill="white"/>
<path d="M40.4671 25.9715V26.3634C40.364 26.2396 40.2196 26.1365 40.0752 26.0746C39.8484 25.9509 39.5802 25.889 39.2915 25.889C39.0027 25.889 38.5902 25.9921 38.2808 26.1777C37.9714 26.3634 37.7445 26.6109 37.5795 26.9409C37.4145 27.2709 37.332 27.6215 37.332 28.034C37.332 28.4466 37.4145 28.7972 37.5795 29.1272C37.7445 29.4572 37.9921 29.7047 38.2808 29.8904C38.5902 30.076 38.9202 30.1791 39.2915 30.1791C39.6627 30.1791 39.3533 30.1791 39.374 30.1791V29.1478C39.2296 29.1478 39.0852 29.0859 38.9615 29.0034C38.7965 28.9003 38.6933 28.7766 38.5902 28.6116C38.5077 28.4466 38.4664 28.2609 38.4664 28.034C38.4664 27.8072 38.5077 27.6215 38.5902 27.4565C38.6727 27.2915 38.7965 27.1678 38.9615 27.0646C39.1265 26.9615 39.2915 26.9203 39.4977 26.9203C39.704 26.9203 39.8896 26.9615 40.0546 27.0646C40.2196 27.1678 40.3227 27.2915 40.4259 27.4565C40.5084 27.6009 40.5496 27.7865 40.5496 27.9722C40.5496 27.9722 40.5496 28.0134 40.5496 28.034C40.5496 28.0547 40.5496 28.0753 40.5496 28.0959V30.0966H41.6015V25.9921H40.5084L40.4671 25.9715Z" fill="white"/>
<path d="M43.663 26.8996C43.7455 26.8584 43.8693 26.8171 44.0343 26.8171C44.1993 26.8171 44.3849 26.8584 44.5293 26.9203C44.6943 26.9821 44.8181 27.1059 44.9418 27.2503L45.6018 26.5902C45.4162 26.3427 45.1893 26.1777 44.9212 26.054C44.653 25.9302 44.3437 25.8683 43.993 25.8683C43.6424 25.8683 43.3949 25.9302 43.1474 26.0334C42.8999 26.1365 42.7349 26.2809 42.5905 26.4871C42.4667 26.6727 42.4049 26.8996 42.4049 27.1678C42.4049 27.4359 42.4461 27.6215 42.5492 27.7659C42.6524 27.9309 42.7761 28.034 42.9411 28.1372C43.1061 28.2197 43.2711 28.3022 43.4361 28.3434C43.6011 28.4053 43.7661 28.4466 43.9311 28.4878C44.0962 28.5291 44.2199 28.5909 44.323 28.6528C44.4262 28.7147 44.4674 28.7972 44.4674 28.9209C44.4674 29.0447 44.4262 29.1066 44.323 29.1478C44.2199 29.1891 44.0962 29.2303 43.9105 29.2303C43.7249 29.2303 43.4774 29.1891 43.2918 29.1066C43.1061 29.0241 42.9411 28.9003 42.7967 28.7559L42.1367 29.416C42.2811 29.581 42.4255 29.7047 42.6111 29.8285C42.7967 29.9522 43.003 30.0347 43.2299 30.0966C43.4568 30.1585 43.6836 30.1997 43.9105 30.1997C44.4055 30.1997 44.7974 30.076 45.0862 29.8491C45.3749 29.6222 45.5193 29.2922 45.5193 28.9003C45.5193 28.5084 45.4781 28.4466 45.3749 28.2815C45.2718 28.1165 45.1481 27.9928 44.9831 27.8897C44.8181 27.7865 44.6737 27.7247 44.488 27.6628C44.323 27.6009 44.158 27.5596 43.993 27.5184C43.828 27.4771 43.7043 27.4359 43.6011 27.374C43.498 27.3121 43.4568 27.2296 43.4568 27.1265C43.4568 27.0234 43.498 26.9615 43.5805 26.9203L43.663 26.8996Z" fill="white"/>
<path d="M48.0352 24.2596H46.9214V25.9715H45.9727V26.9409H46.9214V30.076H48.0352V26.9409H48.984V25.9715H48.0352V24.2596Z" fill="white"/>
<path d="M53.1739 26.879C53.0089 26.5696 52.7614 26.3221 52.452 26.1571C52.1426 25.9715 51.792 25.889 51.4001 25.889C51.0082 25.889 50.6369 25.9921 50.3069 26.1777C49.9769 26.3634 49.7294 26.6315 49.5231 26.9409C49.3169 27.2503 49.2344 27.6215 49.2344 28.034C49.2344 28.4466 49.3375 28.8178 49.5231 29.1272C49.7088 29.4572 49.9769 29.7047 50.3069 29.8904C50.6369 30.076 51.0288 30.1585 51.4619 30.1585C51.8951 30.1585 52.1013 30.0966 52.3901 29.9729C52.6789 29.8491 52.9264 29.6841 53.112 29.4572L52.452 28.7972C52.3282 28.9416 52.1838 29.0447 52.0188 29.1066C51.8538 29.1685 51.6682 29.2097 51.4413 29.2097C51.2144 29.2097 51.0082 29.1685 50.8225 29.0653C50.6575 28.9622 50.5132 28.8178 50.41 28.6322C50.3688 28.5497 50.3482 28.4878 50.3275 28.4053H53.3183C53.3389 28.3022 53.3595 28.2197 53.3595 28.1372C53.3595 28.0547 53.3595 27.9928 53.3595 27.9103C53.3595 27.5184 53.277 27.1678 53.0914 26.8584L53.1739 26.879ZM50.3894 27.5803C50.3894 27.4978 50.4307 27.4359 50.4719 27.374C50.5544 27.1884 50.6782 27.0646 50.8432 26.9615C51.0082 26.8584 51.1938 26.8171 51.4207 26.8171C51.6476 26.8171 51.8126 26.8584 51.957 26.9409C52.1013 27.0234 52.2045 27.1471 52.287 27.3121C52.3282 27.3946 52.3488 27.4772 52.3695 27.5803H50.3894Z" fill="white"/>
<path d="M56.8231 25.9921C56.658 25.9302 56.493 25.889 56.2868 25.889C55.833 25.889 55.4824 26.0334 55.2349 26.3221V25.9509H54.1211V30.0554H55.2349V27.7865C55.2349 27.4772 55.3174 27.2503 55.4618 27.1059C55.6061 26.9615 55.8124 26.879 56.0393 26.879C56.2662 26.879 56.2455 26.879 56.3487 26.9203C56.4312 26.9615 56.5137 27.0028 56.5755 27.0646L57.2768 26.2602C57.1531 26.1159 57.0087 26.0127 56.8437 25.9509L56.8231 25.9921Z" fill="white"/>
<path d="M28.3835 9.49157C28.3835 9.49157 26.5272 4.64454 19.2876 0.973175L10.9961 16.2774C10.9961 16.2774 27.0016 23.2282 30.1367 36.9237C30.1367 36.9237 30.4667 24.1358 13.9249 15.473L20.5664 3.86077C20.5664 3.86077 23.5777 3.92264 28.3835 9.49157Z" fill="white"/>
<path d="M14.9147 7.71776L15.6985 6.33584L12.4396 4.54141L4.375 20.1344C4.375 20.1344 21.453 22.4445 30.0333 36.9856C30.0333 36.9856 26.1144 23.0839 7.5926 18.6287L13.574 7.11962L14.9147 7.69714V7.71776Z" fill="white"/>
<path d="M29.9709 37.0268C29.9709 37.0268 22.9581 26.5284 6.70512 24.2183L8.08704 21.6607L5.40571 21.0626L2.76562 26.5077C2.76562 26.5077 17.2242 25.6002 29.9709 37.0474V37.0268Z" fill="white"/>
<path d="M29.8878 37.0268C29.8878 37.0268 20.0081 28.5909 5.79708 27.9309L4.39453 31.5816C4.39453 31.5816 16.9143 30.8803 29.8878 37.0062V37.0268Z" fill="white"/>
</g>
<path d="M71.16 27.5V10.46H74.256V24.836H81.624V27.5H71.16ZM83.6175 13.172V10.46H86.6415V13.172H83.6175ZM83.6175 27.5V15.26H86.6655V27.5H83.6175ZM90.0159 27.5V10.46H93.0639V15.716C93.0639 16.316 93.0159 16.748 93.0159 16.748H93.0639C93.0639 16.748 94.1439 14.972 96.7359 14.972C100.048 14.972 102.16 17.588 102.16 21.38C102.16 25.268 99.7839 27.788 96.5439 27.788C93.9999 27.788 92.8959 25.964 92.8959 25.964H92.8479C92.8479 25.964 92.8959 26.324 92.8959 26.804V27.5H90.0159ZM92.9679 21.452C92.9679 23.348 93.9759 25.22 96.0159 25.22C97.6959 25.22 99.0879 23.852 99.0879 21.428C99.0879 19.1 97.8399 17.588 96.0399 17.588C94.4559 17.588 92.9679 18.74 92.9679 21.452ZM104.64 27.5L106.032 10.46H109.344L112.68 18.884C113.064 19.892 113.544 21.38 113.544 21.38H113.592C113.592 21.38 114.048 19.892 114.432 18.884L117.768 10.46H121.08L122.448 27.5H119.376L118.656 17.972C118.584 16.844 118.632 15.332 118.632 15.332H118.584C118.584 15.332 118.08 16.988 117.672 17.972L114.912 24.572H112.2L109.464 17.972C109.056 16.988 108.528 15.308 108.528 15.308H108.48C108.48 15.308 108.528 16.844 108.456 17.972L107.736 27.5H104.64ZM124.726 23.972C124.726 20.084 129.982 19.82 131.974 19.82H132.382V19.652C132.382 18.044 131.374 17.492 130.03 17.492C128.278 17.492 126.67 18.668 126.67 18.668L125.518 16.484C125.518 16.484 127.414 14.972 130.318 14.972C133.534 14.972 135.406 16.748 135.406 19.844V27.5H132.598V26.492C132.598 26.012 132.646 25.628 132.646 25.628H132.598C132.622 25.628 131.662 27.788 128.878 27.788C126.694 27.788 124.726 26.42 124.726 23.972ZM127.798 23.828C127.798 24.644 128.398 25.412 129.646 25.412C131.254 25.412 132.406 23.684 132.406 22.196V21.908H131.878C130.318 21.908 127.798 22.124 127.798 23.828ZM137.546 25.988L138.938 23.852C138.938 23.852 140.282 25.196 142.274 25.196C143.138 25.196 143.882 24.812 143.882 24.092C143.882 22.268 137.93 22.508 137.93 18.572C137.93 16.292 139.97 14.972 142.61 14.972C145.37 14.972 146.714 16.364 146.714 16.364L145.586 18.62C145.586 18.62 144.458 17.564 142.586 17.564C141.794 17.564 141.026 17.9 141.026 18.668C141.026 20.396 146.978 20.18 146.978 24.116C146.978 26.156 145.202 27.788 142.298 27.788C139.25 27.788 137.546 25.988 137.546 25.988ZM149.958 23.012V17.876H148.374V15.452H150.03V11.924H153.006V15.452H155.79V17.876H153.006V22.628C153.006 24.644 154.59 24.932 155.43 24.932C155.766 24.932 155.982 24.884 155.982 24.884V27.548C155.982 27.548 155.622 27.62 155.046 27.62C153.342 27.62 149.958 27.116 149.958 23.012ZM157.613 21.38C157.613 17.612 160.181 14.972 163.829 14.972C167.357 14.972 169.253 17.54 169.253 20.78C169.253 21.14 169.181 21.956 169.181 21.956H160.733C160.925 24.092 162.581 25.196 164.405 25.196C166.373 25.196 167.933 23.852 167.933 23.852L169.109 26.036C169.109 26.036 167.237 27.788 164.189 27.788C160.133 27.788 157.613 24.86 157.613 21.38ZM160.829 19.868H166.181C166.133 18.212 165.101 17.324 163.757 17.324C162.197 17.324 161.117 18.284 160.829 19.868ZM171.766 27.5V15.26H174.694V17.372C174.694 17.828 174.646 18.236 174.646 18.236H174.694C175.246 16.484 176.71 15.092 178.582 15.092C178.87 15.092 179.134 15.14 179.134 15.14V18.14C179.134 18.14 178.822 18.092 178.414 18.092C177.118 18.092 175.654 18.836 175.078 20.66C174.886 21.26 174.814 21.932 174.814 22.652V27.5H171.766Z" fill="white"/>
<defs>
<clipPath id="clip0_1017_12474">
<rect width="60" height="37.9099" fill="white" transform="translate(0 0.0450287)"/>
</clipPath>
</defs>
</svg>
